<?xml version="1.0" standalone="no"?>
<!DOCTYPE svg PUBLIC "-//W3C//DTD SVG 20010904//EN"
 "http://www.w3.org/TR/2001/REC-SVG-20010904/DTD/svg10.dtd">
<svg version="1.0" xmlns="http://www.w3.org/2000/svg"
 width="250.000000pt" height="98.000000pt" viewBox="0 0 250.000000 98.000000"
 preserveAspectRatio="xMidYMid meet">

<g transform="translate(0.000000,98.000000) scale(0.100000,-0.100000)"
fill="#db8703" stroke="none">
<path d="M1996 916 c-19 -30 -61 -173 -77 -260 -10 -60 -13 -64 -41 -70 -58
-11 -58 -12 -42 52 7 31 16 92 20 135 6 66 4 80 -11 97 -29 32 -55 24 -110
-33 -88 -91 -175 -258 -175 -337 0 -34 19 -40 41 -13 12 14 12 16 0 8 -11 -6
-13 -3 -7 16 5 13 8 32 9 41 1 9 6 14 11 11 5 -4 7 1 3 10 -3 10 -2 17 4 17 6
0 7 5 4 10 -3 6 -2 10 4 10 6 0 20 18 32 41 11 23 15 38 9 34 -7 -4 -5 6 4 23
9 17 21 34 27 38 6 3 3 -6 -6 -22 l-17 -29 23 30 c47 59 81 95 91 95 12 0 4
-82 -18 -180 -21 -92 -24 -100 -37 -101 -23 -1 -102 -55 -102 -69 0 -18 50
-23 78 -8 18 9 19 8 13 -18 -4 -16 -14 -52 -23 -81 -17 -58 -12 -93 11 -74 11
10 15 9 18 -4 2 -13 6 -14 20 -3 23 17 47 110 57 219 1 7 82 32 87 26 2 -2 -1
-82 -7 -177 -10 -167 -6 -276 10 -293 4 -4 11 70 15 165 4 95 12 207 19 248
l12 75 35 0 c35 0 56 17 45 35 -3 6 -19 10 -36 10 -37 0 -37 9 2 163 37 146
44 187 31 187 -5 0 -17 -11 -26 -24z m-206 -79 c0 -2 -19 -21 -42 -42 l-42
-40 33 43 c27 34 51 53 51 39z m-147 -202 c-3 -9 -8 -14 -10 -11 -3 3 -2 9 2
15 9 16 15 13 8 -4z"/>
<path d="M387 853 c-7 -7 -44 -25 -84 -42 -75 -31 -218 -117 -247 -150 -28
-31 -1 -34 41 -5 70 48 249 131 259 121 2 -2 -12 -64 -30 -138 -54 -212 -62
-341 -21 -325 8 3 17 0 21 -5 9 -14 50 -3 86 24 32 24 211 230 253 293 14 20
30 54 36 75 10 32 9 43 -10 83 -18 36 -31 48 -65 61 -53 20 -221 26 -239 8z
m203 -73 c77 -39 53 -87 -126 -260 -107 -103 -109 -105 -112 -75 -2 27 11 99
38 205 5 19 14 57 19 83 6 27 13 53 16 58 11 18 124 10 165 -11z m20 -193 c0
-2 -12 -14 -27 -28 l-28 -24 24 28 c23 25 31 32 31 24z m-140 -140 c0 -2 -17
-19 -37 -38 l-38 -34 34 38 c33 34 41 42 41 34z"/>
<path d="M2296 668 c-15 -18 -32 -39 -39 -47 -6 -8 -29 -46 -50 -85 l-38 -71
6 86 c4 67 2 89 -9 98 -11 9 -16 5 -25 -20 -6 -18 -11 -55 -11 -83 -1 -49 -3
-53 -52 -96 -35 -30 -49 -38 -44 -25 14 38 34 134 28 139 -9 10 -42 -36 -52
-73 -35 -132 -33 -162 6 -136 31 20 40 19 23 -2 -13 -17 -13 -17 5 -3 10 8 33
37 52 64 l33 49 3 -58 c3 -53 5 -59 26 -60 25 -2 36 13 47 64 5 22 4 31 -3 27
-6 -4 -8 2 -5 15 4 16 8 17 14 7 7 -10 9 -9 9 4 0 22 47 130 82 191 32 55 30
60 -6 15z m-222 -273 c-9 -14 -19 -23 -22 -20 -5 4 26 45 35 45 2 0 -4 -11
-13 -25z"/>
<path d="M883 650 c-39 -24 -89 -90 -98 -131 -4 -16 -11 -29 -17 -29 -5 0 -31
-18 -57 -40 -26 -22 -50 -40 -54 -40 -4 0 -7 13 -7 29 0 23 7 34 30 48 37 22
82 87 74 108 -9 22 -47 18 -72 -8 -32 -34 -63 -112 -69 -174 l-6 -56 26 5 c15
3 24 1 21 -3 -3 -5 1 -9 8 -9 7 0 38 27 69 59 l56 59 26 -26 26 -26 -30 -33
c-54 -63 -24 -99 43 -52 30 22 63 82 54 98 -3 5 4 17 16 27 l21 19 -8 -50 c-4
-27 -8 -54 -8 -60 -1 -5 10 -9 26 -8 19 1 25 -2 21 -10 -4 -7 5 -1 19 12 27
25 35 37 17 26 -17 -11 -11 11 8 28 10 10 22 14 25 10 4 -3 7 0 7 7 0 7 2 11
5 8 3 -3 -2 -24 -10 -48 -18 -52 -19 -47 4 -60 21 -11 51 -4 51 12 0 6 -8 5
-17 -3 -10 -7 -5 2 12 21 46 53 49 56 40 41 -5 -9 -4 -12 3 -7 6 4 9 12 7 19
-3 7 9 28 25 47 l30 35 -6 -45 c-6 -36 -19 -59 -71 -119 -79 -91 -102 -133
-83 -156 23 -28 66 -18 107 26 45 48 60 82 69 152 4 32 16 63 30 80 l24 29 0
-45 c0 -37 4 -46 21 -50 15 -4 25 3 40 26 11 18 18 40 15 50 -2 10 0 14 7 10
6 -4 8 0 4 9 -5 15 49 145 58 137 2 -2 -4 -47 -13 -100 -17 -102 -14 -129 16
-129 23 0 56 35 47 50 -3 6 -2 9 4 8 5 -2 21 18 34 45 13 26 21 47 18 47 -4 0
-24 -20 -46 -45 -22 -25 -43 -45 -46 -45 -3 0 1 40 9 89 8 49 12 96 9 104 -11
29 -43 6 -80 -56 l-37 -62 6 53 c10 81 -24 67 -46 -20 -7 -25 -22 -56 -34 -67
l-22 -21 2 95 c2 72 -1 95 -12 99 -15 6 -66 -41 -131 -123 -24 -29 -43 -49
-43 -45 0 4 -18 -9 -39 -30 l-40 -39 19 73 c25 99 11 115 -30 35 -9 -17 -29
-36 -45 -44 -27 -13 -30 -12 -52 13 -30 35 -29 44 8 89 34 42 50 48 41 15 -7
-30 14 -15 34 24 29 56 -3 75 -63 38z m314 -72 c2 -26 -32 -86 -77 -138 l-31
-35 16 39 c13 33 83 156 89 156 1 0 3 -10 3 -22z m-506 -50 c-24 -39 -28 -30
-5 13 8 17 18 28 21 25 3 -3 -4 -20 -16 -38z m59 -81 c0 -2 -17 -19 -37 -38
l-38 -34 34 38 c33 34 41 42 41 34z m580 -41 c0 -2 -8 -10 -17 -17 -16 -13
-17 -12 -4 4 13 16 21 21 21 13z m-484 -51 c-9 -14 -24 -25 -33 -25 -13 0 -10
7 12 30 33 35 45 32 21 -5z m323 -60 c-20 -77 -86 -140 -86 -80 0 13 3 22 8
19 5 -3 7 1 4 8 -5 13 73 113 82 105 2 -3 -1 -26 -8 -52z"/>
<path d="M997 652 c-20 -22 -22 -52 -4 -52 8 0 22 9 32 20 17 18 17 22 4 36
-14 13 -17 13 -32 -4z"/>
<path d="M2057 652 c-20 -22 -22 -52 -4 -52 8 0 22 9 32 20 17 18 17 22 4 36
-14 13 -17 13 -32 -4z"/>
<path d="M2317 591 c-76 -67 -116 -268 -45 -230 15 8 18 8 14 0 -4 -6 -2 -11
4 -11 12 0 76 62 102 100 10 14 27 39 40 55 l22 30 -25 -22 c-14 -13 -29 -23
-33 -23 -5 0 -31 -18 -58 -40 -28 -22 -55 -40 -61 -40 -12 0 0 64 14 68 23 9
67 54 79 82 11 27 11 34 -2 46 -14 14 -19 12 -51 -15z m8 -50 c-8 -17 -20 -33
-26 -37 -11 -7 5 29 24 54 17 21 18 13 2 -17z m55 -94 c0 -2 -17 -19 -37 -38
l-38 -34 34 38 c33 34 41 42 41 34z"/>
<path d="M1109 363 c-13 -16 -12 -17 4 -4 16 13 21 21 13 21 -2 0 -10 -8 -17
-17z"/>
</g>
</svg>
